inDegrees=yes
name=ik_lifting_orientations
DataType=double
version=3
OpenSimVersion=4.5-2024-01-10-34fd6af
endheader
time	pelvis_tilt	pelvis_list	pelvis_rotation	pelvis_tx	pelvis_ty	pelvis_tz	hip_flexion_r	hip_adduction_r	hip_rotation_r	knee_angle_r	knee_angle_r_beta	ankle_angle_r	subtalar_angle_r	mtp_angle_r	hip_flexion_l	hip_adduction_l	hip_rotation_l	knee_angle_l	knee_angle_l_beta	ankle_angle_l	subtalar_angle_l	mtp_angle_l	lumbar_extension	lumbar_bending	lumbar_rotation	arm_flex_r	arm_add_r	arm_rot_r	elbow_flex_r	pro_sup_r	wrist_flex_r	wrist_dev_r	arm_flex_l	arm_add_l	arm_rot_l	elbow_flex_l	pro_sup_l	wrist_flex_l	wrist_dev_l
0.02	0.01178108006109843	0.002445507434887336	-19.54836382040406	0	0.9399999999597537	0	44.8075220786101	-10.08823226100889	0	59.97739972200078	1.046803101933645	-4.97567566398815	0	0	44.8075220786101	-10.08823226100889	0	59.97739972200078	1.046803101933645	-4.97567566398815	0	0	-0.02531384388291545	-0.008871104284576818	0.002374255252436375	-0.4319457019170113	-0.111492662700981	0.01263303789681726	0.9300187096997128	45.31300410502735	0	0	0	-13.04823680237078	0	74.82421881258918	45.31300410485623	0	0
0.03	-0.001514134145621163	0.00140802404705968	-19.53268019770668	0	0.9399999999597537	0	44.81190787125831	-10.08189616786741	0	59.97780902636367	1.04681024564242	-4.977860251782645	0	0	44.81190787125831	-10.08189616786741	0	59.97780902636367	1.04681024564242	-4.977860251782645	0	0	0.002205137696505957	0.001229250994445301	0.002043075901590934	-0.2411965941811696	-0.05888045244875478	-0.005550451064817933	0.4967280657836749	45.29468704083305	0	0	0	-13.07145705046116	0	74.82822813695506	45.29468704067192	0	0
0.04	0.0008939573050636987	0.0009189867847226937	-19.52835912082326	0	0.9399999999597537	0	44.82762173225546	-10.06243090236713	0	59.97929643972322	1.046836205902883	-4.984205471052976	0	0	44.82762173225546	-10.06243090236713	0	59.97929643972322	1.046836205902883	-4.984205471052976	0	0	-0.002134223118280934	-0.003391040650428085	0.0007548482935307381	-0.2382710556093116	-0.05682906192809366	-0.005293675485077148	0.4961182174628977	45.23602853328788	0	0	0	-13.15755797277336	0	74.84259315679729	45.23602853315883	0	0
0.05	-0.003936510363177765	-0.0007280988403207608	-19.53098342580981	0	0.9399999999597537	0	44.82767145745571	-10.0623683147059	0	59.97930117781748	1.046836288598228	-4.984226102090333	0	0	44.82767145745571	-10.0623683147059	0	59.97930117781748	1.046836288598228	-4.984226102090333	0	0	0.7041931279142652	0.2510854168969863	0.02441292233606046	-0.935997559248121	-0.3031011330937493	-0.03300018588223082	0.4819761550338775	45.23584116873769	0	0	0	-13.15783091316511	0	74.84263861370135	45.23584116860872	0	0
0.06	-0.003282665032429137	-0.001459754229202552	-19.5312971044779	0	0.9399999999597537	0	44.82772334110434	-10.06230304783399	0	59.9793061213602	1.046836374879325	-4.984247610351299	0	0	44.82772334110434	-10.06230304783399	0	59.9793061213602	1.046836374879325	-4.984247610351299	0	0	1.417711259872598	0.5047455113057925	0.04514456999045585	-1.65022758058947	-0.5548321822911021	-0.06453092155142086	0.4822716388831085	45.23564574778049	0	0	0	-13.15811572010141	0	74.84268604377773	45.23564574765164	0	0
0.07000000000000001	0.0002395026824137147	0.0009462469629455594	-19.53343564043756	0	0.9399999999597537	0	44.83687531126474	-10.05328111146705	0	59.98019217591525	1.046851839448663	-4.986954864273206	0	0	44.83687531126474	-10.05328111146705	0	59.98019217591525	1.046851839448663	-4.986954864273206	0	0	1.416901366205799	0.5032430927673469	0.04393919893831646	-1.658401589324661	-0.5588396197713181	-0.06059231362993272	0.4968395933899704	45.20673239958514	0	0	0	-13.21089357442638	0	74.8510524361449	45.20673239947211	0	0
0.08	0.000338374426646049	-4.342803167615066e-05	-19.53107742441397	0	0.9399999999597537	0	44.84458902597631	-10.04650813674488	0	59.98094822368825	1.046865034971604	-4.988911138745161	0	0	44.84458902597631	-10.04650813674488	0	59.98094822368825	1.046865034971604	-4.988911138745161	0	0	1.416664188485877	0.5037287176925345	0.04433803502102792	-1.654159493780696	-0.557672043844135	-0.06362942019847445	0.4878316910421428	45.18437327794994	0	0	0	-13.25664544082496	0	74.85810403119719	45.18437327784913	0	0
0.09	-0.0002081893815389782	0.0002977470873885557	-19.53259416666313	0	0.9399999999597537	0	44.85297718280677	-10.03963875035432	0	59.98177720039068	1.046879503344484	-4.990857858823982	0	0	44.85297718280677	-10.03963875035432	0	59.98177720039068	1.046879503344484	-4.990857858823982	0	0	1.41753505968555	0.5032458428470379	0.04390003236139454	-1.658796307169584	-0.5575912030002671	-0.06202224635014643	0.4966797218781098	45.16132348490282	0	0	0	-13.30735508020201	0	74.86577217827009	45.16132348481462	0	0
0.1	0.0003549993840463646	-4.884278553058287e-05	-19.53106443872954	0	0.9399999999597537	0	44.859914972917	-10.03461330636718	0	59.98247175757169	1.046891625654136	-4.992224877838683	0	0	44.859914972917	-10.03461330636718	0	59.98247175757169	1.046891625654136	-4.992224877838683	0	0	1.416634710382243	0.5038098999755364	0.04436392763870733	-1.654122644116736	-0.5576739039386726	-0.06383089342839175	0.487728141100942	45.14391898200942	0	0	0	-13.35055360542044	0	74.87211445529177	45.14391898193074	0	0
0.11	-0.002586950988179717	0.007242035412247665	-19.52420142088047	0	0.9399999999597537	0	44.86851196491471	-10.02874414965942	0	59.98333870291792	1.046906756704862	-4.993797417864294	0	0	44.86851196491471	-10.02874414965942	0	59.98333870291792	1.046906756704862	-4.993797417864294	0	0	1.424348031404412	0.501397674156061	0.04321321782031107	-1.661573263191678	-0.5627624518022555	-0.07355592093287611	0.4981458376130988	45.12331790332594	0	0	0	-13.40499101511779	0	74.87997351623233	45.12331790325852	0	0
0.12	-0.004815793100392272	-1.991756595460164e-05	-19.5308322972839	0	0.9399999999597537	0	44.86855821018518	-10.02870886405704	0	59.98334334367693	1.046906837701387	-4.993807346906157	0	0	44.86855821018518	-10.02870886405704	0	59.98334334367693	1.046906837701387	-4.993807346906157	0	0	-0.003030805324914343	-0.0005037225293969695	0.0009603028216963204	-0.2309573461694945	-0.05222792017390488	-0.004971640282688504	0.4898335270568652	45.12319812843177	0	0	0	-13.4052783835575	0	74.88001579198456	45.12319812836441	0	0
0.13	0.003938517130547896	-0.0009853483116412981	-19.53020012681895	0	0.9399999999597537	0	44.8685937331536	-10.02868189109033	0	59.98334691995973	1.046906900119297	-4.993814928107292	0	0	44.8685937331536	-10.02868189109033	0	59.98334691995973	1.046906900119297	-4.993814928107292	0	0	1.415836746376449	0.5050965934004121	0.04492556350969944	-1.650517184099685	-0.5575519635981857	-0.06566860887710632	0.4762034333257731	45.12310648178907	0	0	0	-13.40549965745142	0	74.88004826579711	45.1231064817218	0	0
0.14	0.002649560288963371	0.01446211727656551	-19.54017531420141	0	0.9399999999597537	0	44.87635952693237	-10.0239983524207	0	59.98414046075176	1.046920750018867	-4.995019652598881	0	0	44.87635952693237	-10.0239983524207	0	59.98414046075176	1.046920750018867	-4.995019652598881	0	0	1.413173693378169	0.5018088373109046	0.04754937565119513	-1.864987840577719	-0.6281353506851756	-0.0628762113751897	0.9392405729360526	45.10613663816735	0	0	0	-13.45617489055907	0	74.88714747771185	45.10613663810933	0	0
0.15	-0.003972567070615896	-0.00934571927827686	-19.52680690186111	0	0.9399999999597537	0	44.88000653410383	-10.02183323505581	0	59.98451459957968	1.046927279973273	-4.995575318317955	0	0	44.88000653410383	-10.02183323505581	0	59.98451459957968	1.046927279973273	-4.995575318317955	0	0	1.418514604608367	0.5047616655325298	0.04331929641128898	-1.658818953576141	-0.54941861777335	-0.06792578465893079	0.4939137224449355	45.09826939813166	0	0	0	-13.48010762695456	0	74.89048144188108	45.0982693980779	0	0
0.16	0.01216568170888451	0.01177171605884967	-19.53630488101721	0	0.9399999999597537	0	44.88242364682277	-10.02051203505816	0	59.98476425910043	1.046931637353919	-4.995904978653759	0	0	44.88242364682277	-10.02051203505816	0	59.98476425910043	1.046931637353919	-4.995904978653759	0	0	1.425214743515159	0.5025225252671736	0.04631054056572052	-1.676258903919609	-0.5773650929308941	-0.06137641109797484	0.4886688766344177	45.09336381601009	0	0	0	-13.49627678491514	0	74.8926910808045	45.09336381595899	0	0
0.17	0.001199459553222228	-0.0004582847165873676	-19.53085753371449	0	0.9399999999597537	0	44.88781716196893	-10.01786218760621	0	59.98532699059792	1.046941458871355	-4.996539426002778	0	0	44.88781716196893	-10.01786218760621	0	59.98532699059792	1.046941458871355	-4.996539426002778	0	0	1.414973756083571	0.5039726998817152	0.04400594419511171	-1.653520531859321	-0.5581574070445257	-0.06390337388785822	0.4882582328622623	45.08322842239414	0	0	0	-13.53318532802098	0	74.8976216428151	45.0832284223486	0	0
0.18	0.0001982894370038511	0.001232287737771223	-19.53376257416849	0	0.9399999999597537	0	44.89378864470122	-10.01526188754398	0	59.98595805204	1.046952472971302	-4.997138042847722	0	0	44.89378864470122	-10.01526188754398	0	59.98595805204	1.046952472971302	-4.997138042847722	0	0	1.417043195437774	0.5032901892268469	0.04425475900990515	-1.658233528728661	-0.5597289269500705	-0.06020455951184811	0.4967126987162784	45.07297159593498	0	0	0	-13.57526578356705	0	74.90308056424222	45.07297159589505	0	0
0.19	0.0001826690010598994	-0.0004332478263673739	-19.53059452208102	0	0.9399999999597537	0	44.89967370695452	-10.01294544893048	0	59.98658685607976	1.046963447672146	-4.997654478085964	0	0	44.89967370695452	-10.01294544893048	0	59.98658685607976	1.046963447672146	-4.997654478085964	0	0	1.416830756992132	0.5047646542491381	0.04451238099639165	-1.654414379439846	-0.558120911058839	-0.06462477043870082	0.4877159780746753	45.06359951550241	0	0	0	-13.61779612946986	0	74.90846048453514	45.06359951546764	0	0
0.2	0.02314675016600111	0.0007896708994974604	-19.52352385111443	0	0.9399999999597537	0	44.89968233554866	-10.01294156359947	0	59.98658777187547	1.046963463655796	-4.997655396073029	0	0	44.89968233554866	-10.01294156359947	0	59.98658777187547	1.046963463655796	-4.997655396073029	0	0	1.398605601534477	0.4961501451241264	0.03207089475210145	-1.820279245798724	-0.6213280550097284	-0.1383976538585723	0.2803152633849346	45.06358441290638	0	0	0	-13.61785703606548	0	74.90846837249507	45.0635844128716	0	0
